<?xml version="1.0" encoding="UTF-8" standalone="no"?>
<svg xmlns="http://www.w3.org/2000/svg" xmlns:xlink="http://www.w3.org/1999/xlink" xml:space="preserve" width="222.78255213" height="323.5559896" viewBox="0 0 167.0869141 242.6669922">
  <defs>
    <radialGradient xlink:href="#a" id="d" cx="-.20602037" cy="-4.5786963" r="8" fx="-.20602037" fy="-4.5786963" gradientTransform="matrix(-1 0 0 -1.72018 -.41204074 -13.027194)" gradientUnits="userSpaceOnUse"/>
    <radialGradient xlink:href="#b" id="e" cx="171.48665" cy="511.22299" r="81.902771" fx="171.48665" fy="511.22299" gradientTransform="matrix(1.15299 -.67392 .39482 .67549 -233.63262 270.40076)" gradientUnits="userSpaceOnUse"/>
    <radialGradient xlink:href="#c" id="g" cx="159.35434" cy="492.63205" r="81.902771" fx="159.35434" fy="492.63205" gradientTransform="matrix(1.08948 -.71514 .44645 .65627 -244.93331 290.9185)" gradientUnits="userSpaceOnUse"/>
    <linearGradient id="a">
      <stop offset="0" stop-color="#df0000"/>
      <stop offset="1" stop-color="#df0000" stop-opacity=".67175573"/>
    </linearGradient>
    <linearGradient id="b">
      <stop offset="0" stop-color="#fff" stop-opacity=".31297711"/>
      <stop offset="1" stop-opacity="0"/>
    </linearGradient>
    <linearGradient id="c">
      <stop offset="0" stop-color="#fff" stop-opacity=".29007635"/>
      <stop offset="1" stop-opacity="0"/>
    </linearGradient>
    <filter id="f" width="1.2786888" height="1.3248404" x="-.13934441" y="-.16242018" color-interpolation-filters="sRGB">
      <feGaussianBlur stdDeviation="9.5105772"/>
    </filter>
    <filter id="h" width="1.2786888" height="1.3248404" x="-.13934441" y="-.16242018" color-interpolation-filters="sRGB">
      <feGaussianBlur stdDeviation="9.5105772"/>
    </filter>
  </defs>
  <path fill="#fff" stroke="#000" stroke-width=".5" d="M166.8369141 235.5478516c0 3.7773438-3.0869141 6.8691406-6.8710938 6.8691406H7.1108398C3.3359375 242.4169922.25 239.3251953.25 235.5478516V7.1201172C.25 3.3427734 3.3359375.25 7.1108398.25h152.8549805c3.7841797 0 6.8710938 3.0927734 6.8710938 6.8701172v228.4277344z"/>
  <text xml:space="preserve" x="6.2456665" y="28.013288" fill="#df0000" font-family="Bitstream Vera Sans" font-size="32" font-weight="400" letter-spacing="0" style="line-height:125%" word-spacing="0"><tspan x="6.2456665" y="28.013288" font-family="Arial" style="-inkscape-font-specification:Arial">K</tspan></text>
  <path fill="url(#d)" d="M3.676-9C.433-9 0-5.523 0-5.523S-.433-9-3.676-9C-5.946-9-8-7.441-8-4.5-8-.614-1.4208493 3.2938141 0 9 1.35201 3.2985969 8-.614 8-4.5 8-7.441 5.946-9 3.676-9z" transform="matrix(6.8256 0 0 6.38811 83.14175679 122.27334614)"/>
  <path fill="url(#e)" d="M117.3013 604.26609s-8.06755-94.94997 22.85715-122.85714c34.76052-31.36871 140-11.42857 140-11.42857s-71.5404 24.83762-100 48.57143c-27.21033 22.69199-62.85715 85.71428-62.85715 85.71428z" filter="url(#f)" transform="matrix(.2922 0 0 .3026 -4.3353096 -71.83859734)"/>
  <path fill="url(#g)" d="M117.3013 604.26609s-8.06755-94.94997 22.85715-122.85714c34.76052-31.36871 140-11.42857 140-11.42857s-63.09295 37.07057-91.55255 60.80438c-27.21033 22.69199-71.3046 73.48133-71.3046 73.48133z" filter="url(#h)" transform="matrix(.22705 .0665 -.06483 .27594 94.81357603 -72.09673104)"/>
  <path fill="#df0000" d="M23.33226427 32.2823921c-5.42977825 0-6.15475327 5.44843153-6.15475327 5.44843153s-.72497502-5.44843153-6.15475327-5.44843153c-3.80067734 0-7.23970433 2.44294068-7.23970433 7.05146445 0 6.0893313 11.01551939 12.21284512 13.3944576 21.15439335 2.26368008-8.93405362 13.3944576-15.06506205 13.3944576-21.15439335 0-4.60852377-3.43902699-7.05146445-7.23970433-7.05146445z"/>
  <text xml:space="preserve" x="-161.08786" y="-213.51517" fill="#df0000" font-family="Bitstream Vera Sans" font-size="32" font-weight="400" letter-spacing="0" style="line-height:125%" transform="scale(-1)" word-spacing="0"><tspan x="-161.08786" y="-213.51517" font-family="Arial" style="-inkscape-font-specification:Arial">K</tspan></text>
  <path fill="#df0000" d="M144.00125673 209.2460589c5.42977825 0 6.15475327-5.44843153 6.15475327-5.44843153s.72497502 5.44843153 6.15475327 5.44843153c3.80067734 0 7.23970433-2.44294068 7.23970433-7.05146445 0-6.0893313-11.01551939-12.21284512-13.3944576-21.15439335-2.26368008 8.93405362-13.3944576 15.06506205-13.3944576 21.15439335 0 4.60852377 3.43902699 7.05146445 7.23970433 7.05146445z"/>
</svg>